<svg width="17" height="17" viewBox="0 0 17 17" fill="none" xmlns="http://www.w3.org/2000/svg">
<path id="Vector 17" d="M1.93934 12.9394C1.35355 13.5252 1.35355 14.4749 1.93934 15.0607C2.52513 15.6465 3.47487 15.6465 4.06066 15.0607L1.93934 12.9394ZM16.5 2.00003C16.5 1.1716 15.8284 0.50003 15 0.500031L1.5 0.50003C0.671573 0.50003 5.24154e-07 1.1716 8.61329e-07 2.00003C1.1985e-06 2.82846 0.671574 3.50003 1.5 3.50003H13.5V15.5C13.5 16.3285 14.1716 17 15 17C15.8284 17 16.5 16.3285 16.5 15.5L16.5 2.00003ZM4.06066 15.0607L16.0607 3.06069L13.9393 0.93937L1.93934 12.9394L4.06066 15.0607Z" fill="#9A9A9A"/>
</svg>
