<svg width="167" height="120" viewBox="0 0 167 120" fill="none" xmlns="http://www.w3.org/2000/svg">
<path d="M166.753 70.906C165.73 84.2525 160.772 98.6253 148.966 104.943C137.161 111.261 123.074 107.47 110.324 103.364C109.926 103.253 109.508 103.231 109.1 103.299C108.692 103.367 108.304 103.524 107.963 103.759C97.9684 111.735 86.7142 119.158 73.9647 119.948C61.2152 120.738 48.1509 112.446 46.4195 100.521C46.3037 99.8718 45.947 99.2909 45.4212 98.8952C44.8954 98.4995 44.2397 98.3183 43.5862 98.3885C30.5219 100.047 16.5919 95.1511 8.09223 85.0425C-0.407447 74.934 -2.92588 57.7174 3.99978 45.4765C10.9254 33.2357 24.2259 27.6285 36.7393 29.9187C37.1072 29.9892 37.4861 29.9767 37.8485 29.8817C38.2109 29.7867 38.5476 29.6117 38.8341 29.3696C39.1206 29.1275 39.3497 28.8248 39.5046 28.4827C39.6596 28.1405 39.7366 27.768 39.7299 27.3922C39.4151 16.4939 50.1184 5.91086 61.2152 7.41135C63.4975 7.72724 65.7011 8.43831 67.9834 8.12241C70.2657 7.80652 72.7055 6.22737 74.8304 4.88482C93.6399 -6.4873 121.421 2.98947 130 23.0486C130.155 23.4737 130.432 23.8428 130.796 24.1098C131.16 24.3769 131.595 24.5295 132.046 24.5487C145.897 25.8122 159.198 34.8153 164.156 48.0038C166.91 55.1904 167.382 63.1667 166.753 70.906Z" fill="#F8F8F8"/>
</svg>
