<?xml version="1.0" standalone="no"?>
<!DOCTYPE svg PUBLIC "-//W3C//DTD SVG 20010904//EN"
 "http://www.w3.org/TR/2001/REC-SVG-20010904/DTD/svg10.dtd">
<svg version="1.0" xmlns="http://www.w3.org/2000/svg"
 width="1000.000000pt" height="1000.000000pt" viewBox="0 0 1000.000000 1000.000000"
 preserveAspectRatio="xMidYMid meet">

<g transform="translate(0.000000,1000.000000) scale(0.100000,-0.100000)"
fill="#000000" stroke="none">
<path d="M4969 7107 c-74 -92 -413 -545 -528 -705 -389 -539 -503 -756 -505
-957 -1 -64 5 -107 19 -150 25 -77 116 -213 209 -312 l73 -78 6 -115 c6 -127
15 -161 55 -203 39 -41 78 -47 295 -47 185 0 200 -1 226 -21 18 -13 50 -23 88
-26 l60 -6 7 173 c5 116 4 176 -3 183 -7 7 -51 4 -144 -11 -73 -12 -145 -22
-160 -22 -25 0 -27 3 -21 28 4 15 10 36 14 48 5 11 4 27 -1 37 -5 9 -80 76
-166 149 l-157 132 37 16 c45 19 47 37 14 163 -27 99 -30 96 65 71 33 -8 74
-14 92 -12 27 3 32 8 40 41 5 20 12 37 16 37 3 0 44 -38 90 -85 46 -47 88 -84
94 -82 19 6 17 39 -13 207 -17 90 -28 166 -27 168 2 2 22 -6 45 -17 67 -35 75
-31 127 67 27 48 55 99 64 114 l16 27 63 -115 c69 -126 73 -129 142 -93 23 11
43 18 45 16 3 -3 -4 -49 -14 -103 -44 -222 -49 -274 -24 -274 5 0 47 38 93 85
45 47 86 85 89 85 4 0 11 -17 16 -37 8 -33 13 -38 40 -41 18 -2 59 4 92 12 95
25 92 28 65 -71 -33 -126 -31 -144 14 -163 l37 -16 -157 -132 c-86 -73 -161
-140 -166 -149 -5 -10 -6 -26 -1 -37 4 -12 10 -33 14 -48 6 -25 4 -28 -21 -28
-15 0 -87 10 -160 22 -93 15 -137 18 -144 11 -7 -7 -8 -67 -3 -183 l7 -173 60
6 c38 3 70 13 88 26 26 20 41 21 226 21 217 0 256 6 295 47 40 42 49 76 55
203 l6 115 73 78 c93 99 184 235 209 312 32 95 26 216 -14 335 -69 203 -286
533 -785 1194 -116 153 -218 287 -226 297 -14 18 -16 18 -41 -14z"/>
<path d="M3450 3576 l0 -186 35 0 35 0 0 59 0 59 55 4 c69 6 105 31 124 85 13
35 13 46 0 78 -23 62 -56 79 -160 83 l-89 4 0 -186z m139 123 c65 -23 62 -107
-5 -129 -55 -18 -64 -10 -64 63 0 83 5 88 69 66z"/>
<path d="M3900 3575 l0 -185 120 0 120 0 0 30 0 30 -85 0 -85 0 0 50 0 50 85
0 85 0 0 30 0 30 -85 0 -85 0 0 45 0 45 85 0 85 0 0 30 0 30 -120 0 -120 0 0
-185z"/>
<path d="M4340 3575 l0 -185 35 0 34 0 3 73 c3 64 5 72 24 75 34 5 72 -35 90
-94 15 -53 16 -54 53 -54 l39 0 -25 68 c-13 37 -31 74 -39 83 -12 14 -11 18
11 39 50 47 41 124 -17 160 -26 16 -51 20 -120 20 l-88 0 0 -185z m164 114
c50 -40 18 -99 -54 -99 l-40 0 0 53 c0 30 3 57 7 60 13 14 61 6 87 -14z"/>
<path d="M4810 3576 l0 -186 35 0 34 0 3 122 3 121 50 -91 c28 -51 53 -92 57
-92 4 0 31 42 60 92 l53 92 3 -122 3 -122 34 0 35 0 0 185 0 185 -40 0 c-38 0
-40 -2 -81 -72 -71 -123 -60 -121 -117 -21 -49 87 -50 88 -91 91 l-41 3 0
-185z"/>
<path d="M5390 3575 l0 -185 35 0 35 0 0 185 0 185 -35 0 -35 0 0 -185z"/>
<path d="M5680 3575 l0 -185 35 0 34 0 3 80 3 80 70 -80 c70 -80 70 -80 120
-80 l49 0 -49 53 c-28 28 -67 71 -89 93 l-38 42 82 88 81 89 -38 3 c-36 4 -42
0 -115 -80 l-78 -83 0 83 0 82 -35 0 -35 0 0 -185z"/>
<path d="M6281 3698 c-16 -35 -54 -116 -85 -182 -31 -65 -56 -120 -56 -122 0
-2 18 -4 39 -4 36 0 40 3 51 35 l12 35 94 0 94 0 17 -35 c15 -31 21 -35 54
-35 l38 0 -55 118 c-31 64 -69 147 -86 185 -28 60 -34 67 -60 67 -26 0 -32 -7
-57 -62z m89 -110 l30 -63 -56 -3 c-31 -2 -58 -1 -61 2 -5 5 47 126 54 126 2
0 17 -28 33 -62z"/>
<path d="M3819 3012 c48 -130 61 -156 71 -146 18 18 88 224 76 224 -6 0 -27
-41 -45 -91 -23 -61 -37 -86 -42 -77 -5 7 -21 48 -36 91 -15 42 -33 77 -40 77
-9 0 -3 -24 16 -78z"/>
<path d="M4127 2983 c-40 -115 -42 -123 -29 -123 5 0 15 18 22 40 16 49 31 62
66 58 21 -2 30 -12 43 -47 9 -24 22 -46 29 -49 7 -2 -2 34 -24 95 -20 54 -38
106 -41 116 -11 38 -30 12 -66 -90z m68 20 c5 -20 3 -23 -19 -23 -30 0 -30 0
-14 35 12 27 22 24 33 -12z"/>
<path d="M4370 2981 c0 -136 18 -159 22 -29 l3 93 55 -93 c30 -50 58 -92 62
-92 4 0 8 52 8 115 0 134 -18 158 -22 29 l-3 -85 -50 85 c-27 47 -56 86 -62
86 -10 0 -13 -28 -13 -109z"/>
<path d="M4671 3064 c-56 -47 -50 -147 13 -185 38 -23 58 -24 97 -4 40 21 27
39 -14 19 -45 -21 -83 -6 -103 42 -19 46 -10 87 24 115 26 20 40 21 102 4 l25
-7 -24 21 c-32 29 -82 27 -120 -5z"/>
<path d="M4950 3061 c-37 -36 -46 -72 -31 -122 23 -75 106 -101 161 -51 77 68
36 202 -62 202 -30 0 -46 -7 -68 -29z m125 -23 c63 -75 -10 -187 -95 -143 -39
20 -55 74 -36 120 27 63 88 74 131 23z"/>
<path d="M5230 2997 c0 -107 10 -125 77 -134 29 -4 44 0 66 17 26 21 27 25 27
116 0 56 -4 94 -10 94 -6 0 -10 -36 -10 -89 0 -100 -8 -115 -67 -115 -52 0
-63 22 -63 121 0 49 -4 83 -10 83 -6 0 -10 -38 -10 -93z"/>
<path d="M5521 3078 c1 -27 75 -212 85 -215 6 -2 14 4 17 14 3 10 21 62 41
116 22 61 31 97 24 95 -7 -3 -27 -41 -43 -86 -17 -44 -33 -84 -36 -87 -4 -3
-21 35 -39 85 -18 49 -36 90 -41 90 -5 0 -9 -6 -8 -12z"/>
<path d="M5810 2975 l0 -115 64 0 c82 0 97 18 19 22 l-58 3 -3 43 -3 42 50 0
c39 0 51 4 51 15 0 11 -12 15 -50 15 l-50 0 0 35 0 35 60 0 c33 0 60 4 60 10
0 6 -30 10 -70 10 l-70 0 0 -115z"/>
<path d="M6060 2975 c0 -70 4 -115 10 -115 6 0 10 24 10 53 l1 52 47 -53 c62
-69 87 -68 28 2 -46 53 -46 54 -22 60 33 8 56 33 56 60 0 36 -30 56 -83 56
l-47 0 0 -115z m101 79 c20 -24 -1 -48 -45 -52 -35 -3 -36 -2 -36 32 0 34 2
36 34 36 18 0 39 -7 47 -16z"/>
</g>
</svg>
